<svg width="32" height="32" viewBox="0 0 32 32" fill="none" xmlns="http://www.w3.org/2000/svg">
<path d="M11.5011 10.048C12.6732 8.89969 14.1583 8.12295 15.7701 7.81522C17.3819 7.50748 19.0486 7.68243 20.5614 8.31814C22.0742 8.95385 23.3656 10.022 24.2737 11.3887C25.1818 12.7554 25.6663 14.3598 25.6663 16.0007C25.6663 17.6416 25.1818 19.246 24.2737 20.6127C23.3656 21.9794 22.0742 23.0475 20.5614 23.6832C19.0486 24.3189 17.3819 24.4939 15.7701 24.1862C14.1583 23.8784 12.6732 23.1017 11.5011 21.9534C11.4086 21.8562 11.2975 21.7786 11.1743 21.7253C11.0512 21.6719 10.9186 21.6439 10.7844 21.6429C10.6502 21.6419 10.5172 21.6679 10.3933 21.7194C10.2694 21.7708 10.1571 21.8467 10.0631 21.9425C9.96913 22.0382 9.89538 22.152 9.84626 22.2768C9.79714 22.4017 9.77366 22.5352 9.7772 22.6693C9.78075 22.8034 9.81126 22.9355 9.86691 23.0576C9.92255 23.1797 10.0022 23.2893 10.1011 23.38C11.5545 24.8041 13.396 25.7675 15.3946 26.1492C17.3933 26.531 19.4602 26.3141 21.3361 25.5259C23.212 24.7377 24.8135 23.4131 25.9396 21.7184C27.0658 20.0237 27.6666 18.0341 27.6666 15.9994C27.6666 13.9646 27.0658 11.9751 25.9396 10.2803C24.8135 8.58558 23.212 7.26105 21.3361 6.47282C19.4602 5.68459 17.3933 5.46776 15.3946 5.8495C13.396 6.23124 11.5545 7.19457 10.1011 8.61869C10.0073 8.71061 9.93244 8.82012 9.88091 8.94097C9.82938 9.06181 9.80216 9.19162 9.8008 9.32298C9.79944 9.45435 9.82396 9.58469 9.87297 9.70658C9.92199 9.82846 9.99453 9.9395 10.0865 10.0334C10.1784 10.1272 10.2879 10.202 10.4087 10.2536C10.5296 10.3051 10.6594 10.3323 10.7907 10.3337C10.9221 10.335 11.0525 10.3105 11.1743 10.2615C11.2962 10.2125 11.4073 10.1399 11.5011 10.048Z" fill="#41549A"/>
<path d="M16.7068 11.2934C16.6153 11.1951 16.5049 11.1163 16.3822 11.0617C16.2595 11.007 16.1271 10.9776 15.9929 10.9753C15.8586 10.9729 15.7252 10.9976 15.6007 11.0479C15.4762 11.0982 15.3631 11.173 15.2681 11.268C15.1732 11.363 15.0983 11.4761 15.048 11.6006C14.9977 11.7251 14.973 11.8585 14.9754 11.9927C14.9777 12.127 15.0071 12.2594 15.0618 12.3821C15.1164 12.5048 15.1952 12.6152 15.2935 12.7067L17.5868 15H5.3335C5.06828 15 4.81393 15.1054 4.62639 15.2929C4.43885 15.4805 4.3335 15.7348 4.3335 16C4.3335 16.2653 4.43885 16.5196 4.62639 16.7071C4.81393 16.8947 5.06828 17 5.3335 17H17.5868L15.2935 19.2934C15.1952 19.3849 15.1164 19.4953 15.0618 19.618C15.0071 19.7407 14.9777 19.8731 14.9754 20.0073C14.973 20.1416 14.9977 20.275 15.048 20.3995C15.0983 20.524 15.1732 20.6371 15.2681 20.7321C15.3631 20.8271 15.4762 20.9019 15.6007 20.9522C15.7252 21.0025 15.8586 21.0272 15.9929 21.0248C16.1271 21.0225 16.2595 20.9931 16.3822 20.9384C16.5049 20.8838 16.6153 20.805 16.7068 20.7067L20.7068 16.7067C20.8941 16.5192 20.9993 16.265 20.9993 16C20.9993 15.735 20.8941 15.4809 20.7068 15.2934L16.7068 11.2934Z" fill="#41549A"/>
</svg>
