<svg width="24" height="22" viewBox="0 0 24 22" fill="none" xmlns="http://www.w3.org/2000/svg">
<path fill-rule="evenodd" clip-rule="evenodd" d="M9.81539 0.839334C10.0242 0.588853 10.2832 0.384917 10.5756 0.240678C10.8681 0.0964393 11.1875 0.0151012 11.5133 0.00191006C11.8391 -0.0112811 12.1641 0.0439675 12.4673 0.164092C12.7704 0.284218 13.045 0.466551 13.2734 0.699334L13.3994 0.839334L17.9867 6.34367H21.4692C21.7141 6.34315 21.9562 6.39435 22.1799 6.49393C22.4036 6.5935 22.6037 6.73921 22.7671 6.92149C22.9306 7.10378 23.0537 7.31853 23.1284 7.5517C23.2031 7.78486 23.2277 8.03117 23.2006 8.2745L23.0932 9.16817L22.9766 10.0315L22.8809 10.6778L22.7701 11.372L22.6441 12.1012L22.5017 12.8572L22.3431 13.6283C22.2591 14.0172 22.1688 14.4057 22.0724 14.7938C21.8141 15.8182 21.4899 16.8248 21.1017 17.8073L20.8439 18.4373L20.5942 19.0067L20.3586 19.513L20.2489 19.7393L19.9584 20.311C19.5851 21.0227 18.8804 21.4427 18.1349 21.5033L17.9482 21.5103H5.25489C4.84702 21.5134 4.44599 21.4056 4.09462 21.1985C3.74324 20.9913 3.45473 20.6927 3.25989 20.3343L2.98922 19.8093L2.77922 19.3777L2.66839 19.1385L2.43506 18.6147C1.90224 17.3774 1.46995 16.0993 1.14239 14.7927C1.07905 14.539 1.01838 14.2846 0.96039 14.0297L0.794723 13.2737L0.646556 12.534L0.51589 11.8188L0.399223 11.134L0.297723 10.4877L0.21139 9.88917L0.10639 9.09233L0.0293897 8.44367L0.0095564 8.26517C-0.0145768 8.03596 0.00710949 7.80424 0.0733535 7.5835C0.139597 7.36275 0.249077 7.15738 0.395422 6.97934C0.541767 6.80129 0.722057 6.65412 0.925803 6.54639C1.12955 6.43867 1.35268 6.37253 1.58222 6.35183L1.74089 6.34367H5.22806L9.81539 0.839334ZM9.22856 11.8527C9.14964 11.5774 8.97223 11.3408 8.73013 11.1878C8.48802 11.0349 8.19813 10.9764 7.91566 11.0234C7.63318 11.0703 7.37785 11.2196 7.19828 11.4426C7.01872 11.6657 6.92746 11.947 6.94189 12.233L6.95706 12.3683L7.54039 15.8683L7.56956 16.0013C7.64848 16.2766 7.82588 16.5132 8.06799 16.6662C8.31009 16.8191 8.59998 16.8776 8.88246 16.8307C9.16493 16.7837 9.42027 16.6344 9.59983 16.4114C9.7794 16.1883 9.87065 15.907 9.85622 15.621L9.84106 15.4857L9.25772 11.9857L9.22856 11.8527ZM15.2987 11.0267C15.0167 10.9796 14.7273 11.0378 14.4854 11.19C14.2434 11.3423 14.0658 11.5781 13.9862 11.8527L13.9571 11.9857L13.3737 15.4857C13.325 15.7792 13.3903 16.0802 13.5563 16.3272C13.7222 16.5742 13.9762 16.7485 14.2664 16.8143C14.5565 16.8802 14.8609 16.8327 15.1172 16.6816C15.3735 16.5305 15.5624 16.2871 15.6452 16.0013L15.6744 15.8683L16.2577 12.3683C16.3083 12.0633 16.2357 11.7506 16.0559 11.499C15.8761 11.2474 15.6037 11.0775 15.2987 11.0267ZM11.6074 2.33267L8.26489 6.34367H14.9499L11.6074 2.33267Z" fill="#41549A"/>
</svg>
