<svg width="8" height="8" viewBox="0 0 8 8" fill="none" xmlns="http://www.w3.org/2000/svg">
<path d="M8 4C8 6.20914 6.20914 8 4 8C1.79086 8 0 6.20914 0 4C0 1.79086 1.79086 0 4 0C6.20914 0 8 1.79086 8 4Z" fill="white"/>
<path d="M4 0C1.79086 0 0 1.79086 0 4C0 6.20914 1.79086 8 4 8C6.20914 8 8 6.20914 8 4C8 1.79086 6.20914 0 4 0ZM5.8535 5.1465C5.94725 5.24025 5.99993 5.36741 5.99993 5.5C5.99993 5.63259 5.94725 5.75975 5.8535 5.8535C5.75975 5.94725 5.63259 5.99993 5.5 5.99993C5.36741 5.99993 5.24025 5.94725 5.1465 5.8535L4 4.707L2.8535 5.8535C2.80717 5.90009 2.75209 5.93707 2.69143 5.9623C2.63076 5.98753 2.5657 6.00052 2.5 6.00052C2.4343 6.00052 2.36924 5.98753 2.30857 5.9623C2.24791 5.93707 2.19283 5.90009 2.1465 5.8535C2.05276 5.75974 2.00011 5.63258 2.00011 5.5C2.00011 5.36742 2.05276 5.24026 2.1465 5.1465L3.293 4L2.1465 2.8535C2.05275 2.75975 2.00008 2.63259 2.00008 2.5C2.00008 2.36741 2.05275 2.24025 2.1465 2.1465C2.24025 2.05275 2.36741 2.00008 2.5 2.00008C2.63259 2.00008 2.75975 2.05275 2.8535 2.1465L4 3.293L5.1465 2.1465C5.24025 2.05275 5.36741 2.00008 5.5 2.00008C5.63259 2.00008 5.75975 2.05275 5.8535 2.1465C5.94725 2.24025 5.99993 2.36741 5.99993 2.5C5.99993 2.63259 5.94725 2.75975 5.8535 2.8535L4.707 4L5.8535 5.1465Z" fill="#1A2240"/>
</svg>
