<svg width="20" height="23" viewBox="0 0 20 23" fill="none" xmlns="http://www.w3.org/2000/svg">
<path d="M9.7997 0C7.57188 0 5.43531 0.884997 3.86 2.4603C2.2847 4.03561 1.3997 6.17218 1.3997 8.4V13.4204L0.409902 14.4102C0.214168 14.606 0.0808795 14.8554 0.0268849 15.127C-0.0271097 15.3985 0.000614531 15.6799 0.106553 15.9357C0.212491 16.1915 0.391886 16.4101 0.62206 16.564C0.852234 16.7178 1.12285 16.7999 1.3997 16.8H18.1997C18.4766 16.7999 18.7472 16.7178 18.9773 16.564C19.2075 16.4101 19.3869 16.1915 19.4929 15.9357C19.5988 15.6799 19.6265 15.3985 19.5725 15.127C19.5185 14.8554 19.3852 14.606 19.1895 14.4102L18.1997 13.4204V8.4C18.1997 6.17218 17.3147 4.03561 15.7394 2.4603C14.1641 0.884997 12.0275 0 9.7997 0ZM9.7997 22.4C8.68579 22.4 7.61751 21.9575 6.82985 21.1698C6.0422 20.3822 5.5997 19.3139 5.5997 18.2H13.9997C13.9997 19.3139 13.5572 20.3822 12.7696 21.1698C11.9819 21.9575 10.9136 22.4 9.7997 22.4Z" fill="#41549A"/>
</svg>
