<svg width="17" height="14" viewBox="0 0 17 14" fill="none" xmlns="http://www.w3.org/2000/svg">
<path fill-rule="evenodd" clip-rule="evenodd" d="M6.66667 0H10C13.1425 0 14.7142 -9.93411e-08 15.69 0.976667C16.6658 1.95333 16.6667 3.52417 16.6667 6.66667C16.6667 9.80917 16.6667 11.3808 15.69 12.3567C14.7133 13.3325 13.1425 13.3333 10 13.3333H6.66667C3.52417 13.3333 1.9525 13.3333 0.976667 12.3567C0.000833273 11.38 0 9.80917 0 6.66667C0 3.52417 -9.93411e-08 1.9525 0.976667 0.976667C1.95333 0.000833273 3.52417 0 6.66667 0ZM9.375 4.16667C9.375 4.00091 9.44085 3.84194 9.55806 3.72473C9.67527 3.60751 9.83424 3.54167 10 3.54167H14.1667C14.3324 3.54167 14.4914 3.60751 14.6086 3.72473C14.7258 3.84194 14.7917 4.00091 14.7917 4.16667C14.7917 4.33243 14.7258 4.4914 14.6086 4.60861C14.4914 4.72582 14.3324 4.79167 14.1667 4.79167H10C9.83424 4.79167 9.67527 4.72582 9.55806 4.60861C9.44085 4.4914 9.375 4.33243 9.375 4.16667ZM10.2083 6.66667C10.2083 6.50091 10.2742 6.34194 10.3914 6.22473C10.5086 6.10751 10.6676 6.04167 10.8333 6.04167H14.1667C14.3324 6.04167 14.4914 6.10751 14.6086 6.22473C14.7258 6.34194 14.7917 6.50091 14.7917 6.66667C14.7917 6.83243 14.7258 6.9914 14.6086 7.10861C14.4914 7.22582 14.3324 7.29167 14.1667 7.29167H10.8333C10.6676 7.29167 10.5086 7.22582 10.3914 7.10861C10.2742 6.9914 10.2083 6.83243 10.2083 6.66667ZM11.0417 9.16667C11.0417 9.00091 11.1075 8.84194 11.2247 8.72472C11.3419 8.60751 11.5009 8.54167 11.6667 8.54167H14.1667C14.3324 8.54167 14.4914 8.60751 14.6086 8.72472C14.7258 8.84194 14.7917 9.00091 14.7917 9.16667C14.7917 9.33243 14.7258 9.4914 14.6086 9.60861C14.4914 9.72582 14.3324 9.79167 14.1667 9.79167H11.6667C11.5009 9.79167 11.3419 9.72582 11.2247 9.60861C11.1075 9.4914 11.0417 9.33243 11.0417 9.16667ZM7.5 4.16667C7.5 4.60869 7.3244 5.03262 7.01184 5.34518C6.69928 5.65774 6.27536 5.83333 5.83333 5.83333C5.39131 5.83333 4.96738 5.65774 4.65482 5.34518C4.34226 5.03262 4.16667 4.60869 4.16667 4.16667C4.16667 3.72464 4.34226 3.30072 4.65482 2.98816C4.96738 2.67559 5.39131 2.5 5.83333 2.5C6.27536 2.5 6.69928 2.67559 7.01184 2.98816C7.3244 3.30072 7.5 3.72464 7.5 4.16667ZM5.83333 10.8333C9.16667 10.8333 9.16667 10.0875 9.16667 9.16667C9.16667 8.24583 7.675 7.5 5.83333 7.5C3.99167 7.5 2.5 8.24583 2.5 9.16667C2.5 10.0875 2.5 10.8333 5.83333 10.8333Z" fill="#41549A"/>
</svg>
