<svg width="18" height="18" viewBox="0 0 18 18" fill="none" xmlns="http://www.w3.org/2000/svg">
<path fill-rule="evenodd" clip-rule="evenodd" d="M6.24955 2.5C6.38535 2.50003 6.51745 2.54429 6.62586 2.62608C6.73427 2.70788 6.81308 2.82275 6.85038 2.95333L7.52788 5.325C7.67376 5.83577 7.94742 6.30092 8.32303 6.67652C8.69863 7.05213 9.16378 7.32579 9.67455 7.47167L12.0462 8.14917C12.1767 8.18655 12.2915 8.2654 12.3732 8.3738C12.4549 8.4822 12.4991 8.61426 12.4991 8.75C12.4991 8.88575 12.4549 9.0178 12.3732 9.1262C12.2915 9.2346 12.1767 9.31345 12.0462 9.35083L9.67455 10.0283C9.16378 10.1742 8.69863 10.4479 8.32303 10.8235C7.94742 11.1991 7.67376 11.6642 7.52788 12.175L6.85038 14.5467C6.813 14.6772 6.73415 14.7919 6.62575 14.8736C6.51735 14.9554 6.38529 14.9996 6.24955 14.9996C6.1138 14.9996 5.98175 14.9554 5.87335 14.8736C5.76495 14.7919 5.6861 14.6772 5.64872 14.5467L4.97122 12.175C4.82534 11.6642 4.55168 11.1991 4.17607 10.8235C3.80047 10.4479 3.33531 10.1742 2.82455 10.0283L0.452883 9.35083C0.322387 9.31345 0.207609 9.2346 0.125902 9.1262C0.0441945 9.0178 0 8.88575 0 8.75C0 8.61426 0.0441945 8.4822 0.125902 8.3738C0.207609 8.2654 0.322387 8.18655 0.452883 8.14917L2.82455 7.47167C3.33531 7.32579 3.80047 7.05213 4.17607 6.67652C4.55168 6.30092 4.82534 5.83577 4.97122 5.325L5.64872 2.95333C5.68602 2.82275 5.76483 2.70788 5.87324 2.62608C5.98165 2.54429 6.11375 2.50003 6.24955 2.5ZM13.7496 9.69888e-08C13.889 -7.7551e-05 14.0244 0.0464699 14.1344 0.132239C14.2443 0.218007 14.3224 0.338071 14.3562 0.473334L14.5712 1.33667C14.6678 1.72111 14.8668 2.07216 15.1471 2.35245C15.4274 2.63274 15.7784 2.83176 16.1629 2.92833L17.0262 3.14333C17.1617 3.1769 17.2821 3.25488 17.3682 3.36483C17.4542 3.47479 17.5009 3.61038 17.5009 3.75C17.5009 3.88962 17.4542 4.02521 17.3682 4.13517C17.2821 4.24512 17.1617 4.3231 17.0262 4.35667L16.1629 4.57167C15.7784 4.66824 15.4274 4.86726 15.1471 5.14755C14.8668 5.42784 14.6678 5.77889 14.5712 6.16333L14.3562 7.02667C14.3226 7.16219 14.2447 7.28257 14.1347 7.36861C14.0248 7.45465 13.8892 7.5014 13.7496 7.5014C13.6099 7.5014 13.4743 7.45465 13.3644 7.36861C13.2544 7.28257 13.1765 7.16219 13.1429 7.02667L12.9279 6.16333C12.8313 5.77889 12.6323 5.42784 12.352 5.14755C12.0717 4.86726 11.7207 4.66824 11.3362 4.57167L10.4729 4.35667C10.3374 4.3231 10.217 4.24512 10.1309 4.13517C10.0449 4.02521 9.99815 3.88962 9.99815 3.75C9.99815 3.61038 10.0449 3.47479 10.1309 3.36483C10.217 3.25488 10.3374 3.1769 10.4729 3.14333L11.3362 2.92833C11.7207 2.83176 12.0717 2.63274 12.352 2.35245C12.6323 2.07216 12.8313 1.72111 12.9279 1.33667L13.1429 0.473334C13.1767 0.338071 13.2548 0.218007 13.3647 0.132239C13.4747 0.0464699 13.6101 -7.7551e-05 13.7496 9.69888e-08ZM12.4995 11.25C12.6308 11.2499 12.7588 11.2912 12.8653 11.3679C12.9718 11.4446 13.0514 11.553 13.0929 11.6775L13.4212 12.6633C13.5462 13.0358 13.8379 13.3292 14.2112 13.4533L15.1971 13.7825C15.3212 13.8242 15.4291 13.9038 15.5056 14.0101C15.582 14.1164 15.6231 14.2441 15.6231 14.375C15.6231 14.5059 15.582 14.6336 15.5056 14.7399C15.4291 14.8462 15.3212 14.9258 15.1971 14.9675L14.2112 15.2967C14.0273 15.3581 13.8602 15.4614 13.723 15.5985C13.5859 15.7356 13.4826 15.9027 13.4212 16.0867L13.0921 17.0725C13.0504 17.1966 12.9708 17.3046 12.8644 17.381C12.7581 17.4575 12.6305 17.4986 12.4995 17.4986C12.3686 17.4986 12.241 17.4575 12.1347 17.381C12.0283 17.3046 11.9487 17.1966 11.907 17.0725L11.5779 16.0867C11.5165 15.9027 11.4132 15.7356 11.2761 15.5985C11.1389 15.4614 10.9718 15.3581 10.7879 15.2967L9.80205 14.9675C9.67791 14.9258 9.57 14.8462 9.49355 14.7399C9.4171 14.6336 9.37597 14.5059 9.37597 14.375C9.37597 14.2441 9.4171 14.1164 9.49355 14.0101C9.57 13.9038 9.67791 13.8242 9.80205 13.7825L10.7879 13.4533C10.9718 13.3919 11.1389 13.2886 11.2761 13.1515C11.4132 13.0144 11.5165 12.8473 11.5779 12.6633L11.907 11.6775C11.9485 11.5531 12.028 11.4449 12.1343 11.3682C12.2407 11.2914 12.3684 11.2501 12.4995 11.25Z" fill="#1A2240"/>
</svg>
