<svg width="120" height="120" viewBox="0 0 120 120" fill="none" xmlns="http://www.w3.org/2000/svg">
<circle cx="60" cy="60" r="60" fill="#41549A" fill-opacity="0.2"/>
<path d="M60.5 44C62.6217 44 64.6566 44.8429 66.1569 46.3431C67.6571 47.8434 68.5 49.8783 68.5 52C68.5 54.1217 67.6571 56.1566 66.1569 57.6569C64.6566 59.1571 62.6217 60 60.5 60C58.3783 60 56.3434 59.1571 54.8431 57.6569C53.3429 56.1566 52.5 54.1217 52.5 52C52.5 49.8783 53.3429 47.8434 54.8431 46.3431C56.3434 44.8429 58.3783 44 60.5 44ZM60.5 48C59.4391 48 58.4217 48.4214 57.6716 49.1716C56.9214 49.9217 56.5 50.9391 56.5 52C56.5 53.0609 56.9214 54.0783 57.6716 54.8284C58.4217 55.5786 59.4391 56 60.5 56C61.5609 56 62.5783 55.5786 63.3284 54.8284C64.0786 54.0783 64.5 53.0609 64.5 52C64.5 50.9391 64.0786 49.9217 63.3284 49.1716C62.5783 48.4214 61.5609 48 60.5 48ZM60.5 62C65.84 62 76.5 64.66 76.5 70V76H44.5V70C44.5 64.66 55.16 62 60.5 62ZM60.5 65.8C54.56 65.8 48.3 68.72 48.3 70V72.2H72.7V70C72.7 68.72 66.44 65.8 60.5 65.8Z" fill="#41549A"/>
</svg>
