<svg width="12" height="12" viewBox="0 0 12 12" fill="none" xmlns="http://www.w3.org/2000/svg">
<path d="M5.94207 0C2.08874 0 -0.53526 3.90467 0.918074 7.47333L1.54007 8.99867C1.56724 9.06519 1.57217 9.13871 1.55415 9.20827C1.53613 9.27783 1.49612 9.3397 1.44007 9.38467L0.12474 10.44C0.0708902 10.4832 0.0317831 10.5421 0.0128204 10.6084C-0.00614238 10.6748 -0.00402515 10.7455 0.0188795 10.8106C0.0417842 10.8757 0.0843462 10.9321 0.140687 10.972C0.197028 11.0119 0.264368 11.0333 0.333407 11.0333H5.54674C6.31131 11.0336 7.06845 10.8832 7.77488 10.5908C8.48131 10.2983 9.1232 9.86954 9.66387 9.32893C10.2045 8.78833 10.6334 8.14649 10.9259 7.44009C11.2184 6.73369 11.3689 5.97657 11.3687 5.212C11.3687 2.33333 9.03541 0 6.15674 0H5.94207Z" fill="#41549A" fill-opacity="0.4"/>
</svg>
