<svg width="11" height="11" viewBox="0 0 11 11" fill="none" xmlns="http://www.w3.org/2000/svg">
<path d="M3.82067 7.64C2.75489 7.64 1.85156 7.26978 1.11067 6.52933C0.370222 5.78933 0 4.88622 0 3.82C0 2.75378 0.370222 1.85044 1.11067 1.11C1.85111 0.369556 2.75444 -0.000444045 3.82067 3.9992e-07C4.88689 0.000444844 5.79 0.370667 6.53 1.11067C7.27 1.85067 7.64022 2.75378 7.64067 3.82C7.64067 4.28311 7.55867 4.73133 7.39467 5.16467C7.23067 5.598 7.01511 5.96867 6.748 6.27667L10.6873 10.2147C10.7496 10.2769 10.7829 10.3536 10.7873 10.4447C10.7913 10.5349 10.758 10.6156 10.6873 10.6867C10.6162 10.7578 10.5376 10.7933 10.4513 10.7933C10.3651 10.7933 10.2864 10.7578 10.2153 10.6867L6.27667 6.748C5.94333 7.032 5.56 7.25178 5.12667 7.40733C4.69333 7.56289 4.25778 7.64067 3.82 7.64067M3.82 6.974C4.70444 6.974 5.45133 6.66956 6.06067 6.06067C6.66956 5.45178 6.974 4.70489 6.974 3.82C6.974 2.93511 6.66978 2.18844 6.06133 1.58C5.45289 0.971556 4.70622 0.667112 3.82133 0.666667C2.93644 0.666667 2.18956 0.971112 1.58067 1.58C0.971778 2.18889 0.667111 2.93556 0.666667 3.82C0.666222 4.70444 0.970667 5.45111 1.58 6.06C2.18933 6.66889 2.936 6.97333 3.82 6.97333" fill="#ADB4CB"/>
</svg>
